<svg width="612" height="612" xmlns="http://www.w3.org/2000/svg">
 <title>Bootstrap</title>

 <g>
  <title>background</title>
  <rect fill="none" id="canvas_background" height="602" width="802" y="-1" x="-1"/>
 </g>
 <g>
  <title>Layer 1</title>
  <path id="svg_1" d="m612,510c0,56.099976 -45.900024,102 -102,102l-408,0c-56.099998,0 -102,-45.900024 -102,-102l0,-408c0,-56.099998 45.900002,-102 102,-102l408,0c56.099976,0 102,45.900002 102,102l0,408z" fill="#535F75"/>
  <path stroke-dasharray="2,2" id="svg_3" d="m305.998352,106.998047c-60.210968,0 -109.000183,52.149078 -109.000183,116.480988c0,64.383423 109.000183,281.519012 109.000183,281.519012s108.999817,-217.13559 108.999817,-281.519012c0,-64.331909 -48.789185,-116.480988 -108.999817,-116.480988zm0,172.187469c-28.764343,0 -52.094559,-24.934143 -52.094559,-55.706482s23.330215,-55.655075 52.094559,-55.655075s52.09259,24.933945 52.09259,55.655075s-23.329346,55.706482 -52.09259,55.706482z" stroke-width="0" stroke="#000" fill="#fff"/>
 </g>
</svg>